<?xml version="1.0" encoding="UTF-8"?>
<svg id="text" xmlns="http://www.w3.org/2000/svg" viewBox="0 0 3024 7863.06">
  <rect id="bound-box" width="3024" height="7863.06" style="fill: #fff;"/>
  <g style="opacity: .45;">
    <path d="M1216.95,6381.25c-12.93-17.89-17.74-41.61-14.44-71.16l11.08-96.53c.39-3.89,2.04-7.09,4.96-9.62,2.92-2.52,6.22-3.6,9.92-3.21l43.75,4.96c3.69.39,6.66,2.14,8.9,5.25,2.23,3.11,3.16,6.71,2.77,10.79l-11.08,95.37c-.98,9.53-.1,15.75,2.62,18.67,2.72,2.92,6.22,4.57,10.5,4.96,4.86.58,8.79-.34,11.81-2.77,3.01-2.43,5-7.73,5.98-15.89l11.08-96.83c.39-4.08,2.04-7.34,4.96-9.77,2.92-2.43,6.22-3.45,9.92-3.06l43.75,4.96c3.69.2,6.61,1.9,8.75,5.1,2.14,3.21,3.01,6.76,2.62,10.64l-10.79,95.08c-3.31,29.94-13.42,52.35-30.33,67.22-16.92,14.87-39.08,20.76-66.49,17.64-27.22-3.3-47.3-13.9-60.22-31.79Z" style="fill: #fff;"/>
    <path d="M1404.33,6438.41c-2.92-2.53-4.67-5.83-5.25-9.92l-19.54-172.65c-.39-4.08.54-7.73,2.77-10.94,2.23-3.21,5.2-5,8.9-5.4l66.49-7.58c15.55-1.75,29.6-.19,42.14,4.67,12.54,4.86,22.65,12.64,30.33,23.33,7.68,10.7,12.39,23.72,14.14,39.08,1.75,15.36,0,29.21-5.25,41.56-5.25,12.35-13.56,22.41-24.94,30.18-11.37,7.78-25.13,12.54-41.27,14.29l-8.17,1.17,4.08,34.41c.39,4.08-.54,7.73-2.77,10.94-2.24,3.21-5.2,5-8.9,5.4l-42.87,4.67c-3.7.39-7-.68-9.92-3.21ZM1484.24,6324.38c4.08-5.05,5.73-10.89,4.96-17.5-.98-7.39-4.08-12.83-9.33-16.33-5.25-3.5-12.06-4.76-20.42-3.79l-7,.58c-4.28.58-7.73,2.48-10.35,5.69-2.62,3.21-3.75,6.95-3.35,11.23l2.04,16.62c.39,4.08,2.28,7.49,5.69,10.21,3.4,2.72,7.15,3.79,11.23,3.21l7.29-.88c8.75-.97,15.17-3.98,19.25-9.04Z" style="fill: #fff;"/>
    <path d="M1626.71,6381.25c-12.93-17.89-17.75-41.61-14.44-71.16l11.08-96.53c.39-3.89,2.04-7.09,4.96-9.62,2.92-2.52,6.22-3.6,9.92-3.21l43.75,4.96c3.69.39,6.66,2.14,8.9,5.25,2.23,3.11,3.16,6.71,2.77,10.79l-11.08,95.37c-.97,9.53-.1,15.75,2.62,18.67,2.72,2.92,6.22,4.57,10.5,4.96,4.86.58,8.79-.34,11.81-2.77,3.01-2.43,5-7.73,5.98-15.89l11.08-96.83c.39-4.08,2.04-7.34,4.96-9.77,2.92-2.43,6.22-3.45,9.92-3.06l43.75,4.96c3.69.2,6.61,1.9,8.75,5.1,2.14,3.21,3.01,6.76,2.62,10.64l-10.79,95.08c-3.31,29.94-13.42,52.35-30.33,67.22-16.92,14.87-39.08,20.76-66.49,17.64-27.22-3.3-47.3-13.9-60.22-31.79Z" style="fill: #fff;"/>
    <path d="M1814.08,6438.41c-2.92-2.53-4.67-5.83-5.25-9.92l-19.54-172.65c-.39-4.08.54-7.73,2.77-10.94,2.23-3.21,5.2-5,8.9-5.4l66.49-7.58c15.55-1.75,29.6-.19,42.14,4.67,12.54,4.86,22.65,12.64,30.33,23.33,7.68,10.7,12.39,23.72,14.14,39.08,1.75,15.36,0,29.21-5.25,41.56-5.25,12.35-13.56,22.41-24.93,30.18-11.38,7.78-25.13,12.54-41.27,14.29l-8.17,1.17,4.08,34.41c.39,4.08-.54,7.73-2.77,10.94-2.24,3.21-5.2,5-8.9,5.4l-42.87,4.67c-3.7.39-7-.68-9.92-3.21ZM1893.99,6324.38c4.08-5.05,5.73-10.89,4.96-17.5-.98-7.39-4.08-12.83-9.33-16.33-5.25-3.5-12.06-4.76-20.42-3.79l-7,.58c-4.28.58-7.73,2.48-10.35,5.69s-3.75,6.95-3.35,11.23l2.04,16.62c.39,4.08,2.28,7.49,5.69,10.21,3.4,2.72,7.14,3.79,11.23,3.21l7.29-.88c8.75-.97,15.17-3.98,19.25-9.04Z" style="fill: #fff;"/>
    <path d="M842.78,6719.31c-1.56-2.33-2.53-4.96-2.92-7.87,0-2.53.1-4.38.29-5.54l46.66-180.53c.77-2.92,2.14-5.25,4.08-7,1.94-1.75,4.27-2.82,7-3.21l41.41-4.96c2.72-.39,5.3.15,7.73,1.6,2.43,1.46,4.32,3.45,5.69,5.98l86.03,165.65c.97,2.53,1.55,4.38,1.75,5.54.19,2.72-.29,5.45-1.46,8.17-.78,2.33-2.09,4.13-3.94,5.4-1.85,1.27-3.94,2.09-6.27,2.48l-46.08,5.25c-2.73.39-5.3-.15-7.73-1.6-2.43-1.46-4.33-3.45-5.69-5.98l-10.5-21-42.29,4.67-5.25,22.75c-.78,2.72-2.19,5.1-4.23,7.15-2.04,2.04-4.33,3.16-6.85,3.35l-45.5,5.25c-4.67.58-8.65-1.27-11.96-5.54ZM944.56,6627.73c.97-1.36,1.26-2.82.87-4.38,0-.77-.1-1.36-.29-1.75l-9.92-23.04c-.78-1.55-1.8-2.67-3.06-3.35-1.27-.68-2.58-.92-3.94-.73-3.11.2-5.06,2.04-5.83,5.54l-4.67,24.5v2.04c.39,1.95.97,3.31,1.75,4.08,1.94,1.56,3.89,2.24,5.83,2.04l14-1.75c2.52-.39,4.27-1.46,5.25-3.21Z" style="fill: #fff;"/>
    <path d="M1056.55,6721.06c-2.92-2.53-4.57-5.83-4.96-9.92l-19.83-172.65c-.39-4.08.54-7.73,2.77-10.94,2.23-3.21,5.2-5,8.9-5.4l39.96-4.67c4.67-.39,8.36,1.07,11.08,4.38l50.16,58.91-8.46-54.25c-.39-4.08.48-7.73,2.62-10.94,2.14-3.21,5.05-5,8.75-5.4l42.87-4.96c3.69-.39,6.95.73,9.77,3.35,2.82,2.62,4.42,5.98,4.81,10.06l19.83,172.65c.39,4.08-.49,7.73-2.62,10.94-2.14,3.21-5.06,5-8.75,5.4l-37.91,4.37c-2.14.19-4.18-.1-6.12-.88-1.95-.78-3.6-1.95-4.96-3.5l-52.79-62.12,8.75,57.75c.39,4.08-.49,7.73-2.62,10.94-2.14,3.21-5.06,5-8.75,5.4l-42.58,4.67c-3.7.39-7-.68-9.92-3.21Z" style="fill: #fff;"/>
    <path d="M1223.51,6678.92c-2.23-3.21-3.16-6.85-2.77-10.94l19.83-172.65c.39-4.08,2.04-7.44,4.96-10.06s6.22-3.74,9.92-3.35l60.08,7c19.83,2.14,36.89,8.27,51.18,18.37,14.29,10.11,24.79,23.24,31.5,39.37,6.71,16.14,8.9,34.12,6.56,53.95-2.14,20.22-8.36,37.58-18.67,52.06-10.31,14.49-23.62,25.08-39.96,31.79-16.33,6.71-34.51,8.89-54.54,6.56l-59.2-6.71c-3.7-.39-6.66-2.19-8.9-5.39ZM1326.75,6615.92c6.12-4.96,9.77-12.4,10.94-22.31.97-9.72-1.02-17.64-5.98-23.77-4.96-6.12-12.3-9.77-22.02-10.94l-3.21-.29c-2.33-.39-4.48.15-6.42,1.6-1.95,1.46-3.02,3.35-3.21,5.69l-4.96,45.79c-.39,2.33.15,4.42,1.6,6.27,1.46,1.85,3.35,2.87,5.69,3.06l3.5.58c9.92,1.17,17.94-.73,24.06-5.69Z" style="fill: #fff;"/>
    <path d="M1481.47,6719.31c-1.56-2.33-2.53-4.96-2.92-7.87,0-2.53.1-4.38.29-5.54l46.66-180.53c.78-2.92,2.14-5.25,4.08-7,1.94-1.75,4.27-2.82,7-3.21l41.41-4.96c2.72-.39,5.29.15,7.73,1.6,2.43,1.46,4.32,3.45,5.69,5.98l86.04,165.65c.97,2.53,1.55,4.38,1.75,5.54.19,2.72-.29,5.45-1.46,8.17-.78,2.33-2.09,4.13-3.94,5.4-1.85,1.27-3.94,2.09-6.27,2.48l-46.08,5.25c-2.73.39-5.3-.15-7.73-1.6-2.43-1.46-4.33-3.45-5.69-5.98l-10.5-21-42.29,4.67-5.25,22.75c-.78,2.72-2.19,5.1-4.23,7.15-2.04,2.04-4.33,3.16-6.85,3.35l-45.5,5.25c-4.67.58-8.65-1.27-11.96-5.54ZM1583.25,6627.73c.97-1.36,1.26-2.82.87-4.38,0-.77-.1-1.36-.29-1.75l-9.92-23.04c-.78-1.55-1.8-2.67-3.06-3.35-1.27-.68-2.58-.92-3.94-.73-3.11.2-5.06,2.04-5.83,5.54l-4.67,24.5v2.04c.39,1.95.97,3.31,1.75,4.08,1.94,1.56,3.89,2.24,5.83,2.04l14-1.75c2.52-.39,4.27-1.46,5.25-3.21Z" style="fill: #fff;"/>
    <path d="M1686.63,6681.39c-2.04-2.14-3.35-4.76-3.94-7.87l-32.37-178.49c-.39-1.17-.39-2.72,0-4.67.39-2.92,1.46-5.64,3.21-8.17,1.36-1.94,3.06-3.35,5.1-4.23,2.04-.88,4.13-1.12,6.27-.73l45.79,5.25c2.92.2,5.44,1.36,7.58,3.5,2.14,2.14,3.4,4.77,3.79,7.87l7.87,63,24.21-60.08c1.36-2.72,3.25-4.86,5.69-6.42,2.43-1.55,5.1-2.23,8.02-2.04l37.04,4.37c2.92.2,5.39,1.36,7.44,3.5,2.04,2.14,3.35,4.67,3.94,7.58l9.62,63.87,22.46-59.2c.97-2.92,2.77-5.2,5.39-6.85,2.62-1.65,5.4-2.28,8.31-1.9l44.62,4.96c4.86.58,8.17,3.02,9.92,7.29,1.36,2.92,1.94,5.83,1.75,8.75-.39,2.33-.78,3.89-1.17,4.67l-71.74,166.82c-1.36,2.72-3.31,4.86-5.83,6.42-2.53,1.56-5.15,2.24-7.87,2.04l-37.62-4.37c-2.72-.39-5.15-1.6-7.29-3.65-2.14-2.04-3.5-4.62-4.08-7.73l-11.38-67.37-25.96,63.29c-1.56,2.92-3.55,5.1-5.98,6.56-2.43,1.46-5.1,2-8.02,1.6l-37.33-4.08c-2.92-.19-5.39-1.36-7.44-3.5Z" style="fill: #fff;"/>
    <path d="M1890.93,6719.31c-1.56-2.33-2.53-4.96-2.92-7.87,0-2.53.1-4.38.29-5.54l46.66-180.53c.77-2.92,2.14-5.25,4.08-7,1.94-1.75,4.27-2.82,7-3.21l41.41-4.96c2.72-.39,5.29.15,7.73,1.6,2.43,1.46,4.32,3.45,5.69,5.98l86.04,165.65c.97,2.53,1.55,4.38,1.75,5.54.19,2.72-.29,5.45-1.46,8.17-.78,2.33-2.09,4.13-3.94,5.4-1.85,1.27-3.94,2.09-6.27,2.48l-46.08,5.25c-2.72.39-5.3-.15-7.73-1.6-2.43-1.46-4.33-3.45-5.69-5.98l-10.5-21-42.29,4.67-5.25,22.75c-.78,2.72-2.19,5.1-4.23,7.15-2.04,2.04-4.33,3.16-6.85,3.35l-45.5,5.25c-4.67.58-8.65-1.27-11.96-5.54ZM1992.71,6627.73c.97-1.36,1.26-2.82.88-4.38,0-.77-.1-1.36-.29-1.75l-9.92-23.04c-.78-1.55-1.8-2.67-3.06-3.35-1.27-.68-2.58-.92-3.94-.73-3.11.2-5.06,2.04-5.83,5.54l-4.67,24.5v2.04c.39,1.95.97,3.31,1.75,4.08,1.94,1.56,3.89,2.24,5.83,2.04l14-1.75c2.52-.39,4.27-1.46,5.25-3.21Z" style="fill: #fff;"/>
    <path d="M2099.31,6684.75c-2.24-3.21-3.16-6.85-2.77-10.94l7-60.37-45.2-110.53c-1.17-2.52-1.56-5.15-1.17-7.87.19-1.94.97-4.27,2.33-7,1.55-2.33,3.45-4.08,5.69-5.25,2.23-1.17,4.52-1.65,6.85-1.46l49,5.54c2.52.39,4.76,1.31,6.71,2.77,1.94,1.46,3.3,3.45,4.08,5.98l14.29,57.16,26.83-52.79c1.55-2.14,3.45-3.69,5.69-4.67,2.23-.97,4.52-1.36,6.85-1.17l48.41,5.54c2.33.2,4.42,1.07,6.27,2.62,1.85,1.56,3.25,3.6,4.23,6.12.97,2.53,1.26,5.15.88,7.87-.2,2.33-1.07,4.67-2.62,7l-69.41,97.41-7,61.25c-.39,4.08-2.04,7.39-4.96,9.92-2.92,2.53-6.23,3.6-9.92,3.21l-43.16-4.96c-3.7-.39-6.66-2.19-8.9-5.4Z" style="fill: #fff;"/>
    <path d="M2230.25,6714.93c-3.01-3.89-4.32-8.27-3.94-13.12l5.83-50.45c.39-3.5,3.02-6.61,7.88-9.33,4.86-2.72,9.62-4.37,14.29-4.96l-9.92-115.2,3.21-27.42c.58-5.05,2.82-9.09,6.71-12.1,3.89-3.01,8.26-4.23,13.12-3.65l57.45,6.42c4.86.58,8.79,2.82,11.81,6.71,3.01,3.89,4.23,8.27,3.65,13.12l-2.92,27.42-35.58,110.24c4.47,1.56,8.75,4.18,12.83,7.87,4.08,3.7,5.93,7.39,5.54,11.08l-5.83,50.45c-.58,4.86-2.82,8.79-6.71,11.81-3.89,3.01-8.27,4.23-13.12,3.65l-52.79-5.83c-4.67-.58-8.5-2.82-11.52-6.71Z" style="fill: #fff;"/>
  </g>
</svg>